<svg xmlns="http://www.w3.org/2000/svg" xmlns:xlink="http://www.w3.org/1999/xlink" width="2000" zoomAndPan="magnify" viewBox="0 0 1500 1499.999933" height="2000" preserveAspectRatio="xMidYMid meet" version="1.0"><defs><clipPath id="5cf382e688"><path d="M 450 494.183594 L 958 494.183594 L 958 1002 L 450 1002 Z M 450 494.183594 " clip-rule="nonzero"/></clipPath><clipPath id="5645d5c7ed"><path d="M 980 936 L 1050 936 L 1050 1005.683594 L 980 1005.683594 Z M 980 936 " clip-rule="nonzero"/></clipPath></defs><path fill="#0a66c2" d="M 1020.371094 972.824219 C 1025.558594 972.871094 1029.816406 968.710938 1029.863281 963.523438 C 1029.863281 963.308594 1029.863281 963.09375 1029.863281 962.878906 C 1029.863281 955.828125 1025.609375 952.480469 1016.902344 952.480469 L 1002.816406 952.480469 L 1002.816406 989.34375 L 1008.125 989.34375 L 1008.125 973.277344 L 1014.632812 973.277344 L 1014.773438 973.46875 L 1024.890625 989.34375 L 1030.558594 989.34375 L 1019.675781 972.921875 L 1020.394531 972.824219 Z M 1014.25 969.121094 L 1008.101562 969.121094 L 1008.101562 956.664062 L 1015.898438 956.664062 C 1019.917969 956.664062 1024.507812 957.332031 1024.507812 962.59375 C 1024.507812 968.640625 1019.867188 969.144531 1014.226562 969.144531 " fill-opacity="1" fill-rule="nonzero"/><g clip-path="url(#5cf382e688)"><path fill="#0a66c2" d="M 882.125 926.609375 L 806.988281 926.609375 L 806.988281 808.960938 C 806.988281 780.917969 806.484375 744.792969 767.910156 744.792969 C 729.339844 744.792969 722.785156 775.371094 722.785156 806.929688 L 722.785156 926.609375 L 647.648438 926.609375 L 647.648438 684.664062 L 719.796875 684.664062 L 719.796875 717.726562 L 720.800781 717.726562 C 735.507812 692.578125 762.867188 677.5625 791.96875 678.636719 C 868.132812 678.636719 882.171875 728.726562 882.171875 793.875 L 882.171875 926.609375 Z M 562.824219 651.597656 C 538.746094 651.597656 519.207031 632.089844 519.207031 608.015625 C 519.207031 583.9375 538.71875 564.40625 562.800781 564.40625 C 586.882812 564.40625 606.421875 583.914062 606.421875 607.992188 C 606.421875 632.066406 586.90625 651.597656 562.824219 651.597656 M 600.417969 926.609375 L 525.183594 926.609375 L 525.183594 684.664062 L 600.417969 684.664062 Z M 919.597656 494.621094 L 487.425781 494.621094 C 467.003906 494.40625 450.238281 510.757812 450 531.175781 L 450 965.03125 C 450.238281 985.472656 466.980469 1001.824219 487.425781 1001.609375 L 919.597656 1001.609375 C 940.066406 1001.875 956.878906 985.496094 957.167969 965.03125 L 957.167969 531.152344 C 956.878906 510.6875 940.066406 494.332031 919.597656 494.59375 " fill-opacity="1" fill-rule="nonzero"/></g><g clip-path="url(#5645d5c7ed)"><path fill="#0a66c2" d="M 1014.871094 936.054688 C 995.761719 936.246094 980.433594 951.859375 980.625 970.960938 C 980.816406 990.0625 996.433594 1005.386719 1015.539062 1005.195312 C 1034.648438 1005.003906 1049.976562 989.394531 1049.785156 970.289062 C 1049.59375 951.453125 1034.382812 936.222656 1015.539062 936.054688 L 1014.871094 936.054688 M 1014.871094 1001.25 C 998.128906 1001.539062 984.332031 988.175781 984.046875 971.4375 C 983.757812 954.703125 997.125 940.90625 1013.867188 940.621094 C 1030.605469 940.335938 1044.402344 953.699219 1044.691406 970.433594 L 1044.691406 970.9375 C 1045.050781 987.3125 1032.039062 1000.867188 1015.660156 1001.226562 L 1014.871094 1001.226562 " fill-opacity="1" fill-rule="nonzero"/></g></svg>