<svg xmlns="http://www.w3.org/2000/svg" xmlns:xlink="http://www.w3.org/1999/xlink" width="2000" zoomAndPan="magnify" viewBox="0 0 1500 1499.999933" height="2000" preserveAspectRatio="xMidYMid meet" version="1.0"><defs><clipPath id="754de7f259"><path d="M 450 532.910156 L 1050 532.910156 L 1050 967.160156 L 450 967.160156 Z M 450 532.910156 " clip-rule="nonzero"/></clipPath></defs><g clip-path="url(#754de7f259)"><path fill="#000000" d="M 998.101562 532.910156 L 501.898438 532.910156 C 473.367188 532.910156 450.210938 556.070312 450.210938 584.605469 L 450.210938 915.460938 C 450.210938 944 473.367188 967.160156 501.898438 967.160156 L 998.101562 967.160156 C 1026.632812 967.160156 1049.789062 944 1049.789062 915.460938 L 1049.789062 584.605469 C 1049.789062 556.070312 1026.632812 532.910156 998.101562 532.910156 Z M 856.167969 729.5625 L 1025.601562 570.441406 C 1027.773438 574.78125 1029.117188 579.539062 1029.117188 584.605469 L 1029.117188 915.460938 C 1029.117188 919.390625 1028.289062 923.113281 1026.945312 926.628906 Z M 998.101562 553.585938 C 1002.546875 553.585938 1006.785156 554.519531 1010.507812 556.277344 L 750 800.902344 L 489.492188 556.277344 C 493.214844 554.519531 497.453125 553.585938 501.898438 553.585938 Z M 473.054688 926.628906 C 471.710938 923.113281 470.882812 919.390625 470.882812 915.460938 L 470.882812 584.605469 C 470.882812 579.539062 472.226562 574.78125 474.398438 570.542969 L 643.832031 729.664062 Z M 501.898438 946.480469 C 496.316406 946.480469 491.25 944.929688 486.699219 942.34375 L 658.925781 743.726562 L 742.867188 822.617188 C 744.832031 824.476562 747.414062 825.40625 749.898438 825.40625 C 752.378906 825.40625 754.960938 824.476562 756.925781 822.617188 L 840.867188 743.726562 L 1013.300781 942.34375 C 1008.75 944.929688 1003.683594 946.480469 998.101562 946.480469 Z M 501.898438 946.480469 " fill-opacity="1" fill-rule="nonzero"/></g></svg>