<svg xmlns="http://www.w3.org/2000/svg" xmlns:xlink="http://www.w3.org/1999/xlink" width="2000" zoomAndPan="magnify" viewBox="0 0 1500 1499.999933" height="2000" preserveAspectRatio="xMidYMid meet" version="1.0"><path fill="#000000" d="M 1042.578125 890.460938 C 1046.960938 902.164062 1049.515625 914.738281 1049.902344 927.886719 C 1049.996094 929.140625 1049.996094 930.390625 1049.996094 931.691406 C 1049.996094 997.011719 997.007812 1049.996094 931.691406 1049.996094 C 665.652344 1049.996094 450 834.34375 450 568.304688 C 450 502.988281 502.984375 450 568.304688 450 C 569.605469 450 570.855469 450 572.109375 450.097656 C 585.257812 450.484375 597.878906 453.039062 609.582031 457.417969 L 653.996094 649.710938 C 653.996094 649.808594 653.949219 649.855469 653.851562 649.902344 L 572.398438 686.511719 L 572.15625 686.609375 C 609.535156 800.429688 699.566406 890.460938 813.390625 927.839844 L 813.484375 927.597656 L 850.140625 846.097656 L 1042.578125 890.460938 " fill-opacity="1" fill-rule="nonzero"/></svg>