<svg xmlns="http://www.w3.org/2000/svg" xmlns:xlink="http://www.w3.org/1999/xlink" width="2000" zoomAndPan="magnify" viewBox="0 0 1500 1499.999933" height="2000" preserveAspectRatio="xMidYMid meet" version="1.0"><path fill="#000000" d="M 949.746094 550.367188 C 946.484375 547.070312 943.144531 543.855469 939.722656 540.726562 C 936.304688 537.59375 932.808594 534.546875 929.238281 531.585938 C 925.667969 528.625 922.027344 525.757812 918.316406 522.976562 C 914.605469 520.195312 910.828125 517.507812 906.984375 514.914062 C 903.140625 512.320312 899.234375 509.820312 895.265625 507.417969 C 891.300781 505.015625 887.277344 502.714844 883.195312 500.507812 C 879.113281 498.304688 874.984375 496.203125 870.800781 494.203125 C 866.613281 492.203125 862.382812 490.304688 858.105469 488.515625 C 853.828125 486.722656 849.511719 485.039062 845.148438 483.457031 C 840.789062 481.878906 836.394531 480.410156 831.960938 479.046875 C 827.527344 477.683594 823.0625 476.429688 818.570312 475.289062 C 814.074219 474.144531 809.554688 473.113281 805.007812 472.195312 C 800.464844 471.273438 795.898438 470.46875 791.3125 469.773438 C 786.726562 469.078125 782.128906 468.496094 777.515625 468.027344 C 772.902344 467.558594 768.277344 467.203125 763.648438 466.964844 C 759.015625 466.722656 754.382812 466.59375 749.742188 466.582031 C 745.105469 466.570312 740.472656 466.671875 735.839844 466.886719 C 731.207031 467.105469 726.582031 467.433594 721.964844 467.878906 C 717.347656 468.320312 712.746094 468.878906 708.160156 469.550781 C 703.570312 470.21875 699 471.003906 694.449219 471.898438 C 689.898438 472.792969 685.375 473.800781 680.875 474.917969 C 676.371094 476.039062 671.902344 477.265625 667.460938 478.605469 C 663.023438 479.945312 658.617188 481.390625 654.25 482.949219 C 649.878906 484.503906 645.550781 486.164062 641.265625 487.933594 C 636.980469 489.703125 632.738281 491.578125 628.542969 493.554688 C 624.347656 495.53125 620.207031 497.613281 616.113281 499.796875 C 612.019531 501.976562 607.984375 504.257812 604.003906 506.640625 C 600.027344 509.019531 596.105469 511.496094 592.25 514.070312 C 588.390625 516.644531 584.597656 519.3125 580.875 522.074219 C 577.148438 524.835938 573.492188 527.683594 569.90625 530.625 C 566.320312 533.566406 562.808594 536.59375 559.371094 539.707031 C 555.933594 542.820312 552.578125 546.019531 549.296875 549.296875 C 546.019531 552.578125 542.820312 555.933594 539.707031 559.371094 C 536.59375 562.808594 533.566406 566.320312 530.625 569.90625 C 527.683594 573.492188 524.835938 577.148438 522.074219 580.875 C 519.3125 584.597656 516.644531 588.390625 514.070312 592.25 C 511.496094 596.105469 509.019531 600.027344 506.640625 604.003906 C 504.257812 607.984375 501.976562 612.019531 499.796875 616.113281 C 497.613281 620.207031 495.53125 624.347656 493.554688 628.542969 C 491.578125 632.738281 489.703125 636.980469 487.933594 641.265625 C 486.164062 645.550781 484.503906 649.878906 482.949219 654.25 C 481.390625 658.617188 479.945312 663.023438 478.605469 667.460938 C 477.265625 671.902344 476.039062 676.371094 474.921875 680.875 C 473.800781 685.375 472.792969 689.898438 471.898438 694.449219 C 471.003906 699 470.21875 703.570312 469.550781 708.15625 C 468.878906 712.746094 468.320312 717.347656 467.878906 721.964844 C 467.433594 726.582031 467.105469 731.207031 466.886719 735.839844 C 466.671875 740.472656 466.570312 745.105469 466.582031 749.742188 C 466.59375 754.382812 466.722656 759.015625 466.964844 763.648438 C 467.203125 768.277344 467.558594 772.902344 468.027344 777.515625 C 468.496094 782.128906 469.078125 786.726562 469.773438 791.3125 C 470.46875 795.898438 471.273438 800.464844 472.195312 805.007812 C 473.113281 809.554688 474.144531 814.074219 475.289062 818.570312 C 476.429688 823.0625 477.683594 827.527344 479.046875 831.960938 C 480.410156 836.394531 481.878906 840.789062 483.457031 845.148438 C 485.039062 849.511719 486.722656 853.828125 488.515625 858.105469 C 490.308594 862.382812 492.203125 866.613281 494.203125 870.800781 C 496.203125 874.984375 498.304688 879.113281 500.507812 883.195312 C 502.714844 887.277344 505.015625 891.300781 507.417969 895.265625 C 509.820312 899.234375 512.320312 903.140625 514.914062 906.984375 C 517.507812 910.828125 520.195312 914.605469 522.976562 918.316406 C 525.757812 922.027344 528.625 925.667969 531.585938 929.238281 C 534.546875 932.808594 537.59375 936.304688 540.726562 939.722656 C 543.855469 943.144531 547.070312 946.484375 550.367188 949.746094 C 553.628906 953.042969 556.96875 956.257812 560.390625 959.390625 C 563.8125 962.519531 567.304688 965.566406 570.875 968.527344 C 574.445312 971.488281 578.085938 974.355469 581.796875 977.136719 C 585.507812 979.917969 589.289062 982.605469 593.132812 985.199219 C 596.976562 987.796875 600.878906 990.292969 604.847656 992.695312 C 608.8125 995.097656 612.839844 997.398438 616.917969 999.605469 C 621 1001.808594 625.132812 1003.910156 629.316406 1005.910156 C 633.5 1007.910156 637.730469 1009.808594 642.007812 1011.597656 C 646.285156 1013.390625 650.601562 1015.078125 654.964844 1016.65625 C 659.324219 1018.234375 663.71875 1019.707031 668.152344 1021.066406 C 672.585938 1022.429688 677.050781 1023.683594 681.542969 1024.824219 C 686.039062 1025.96875 690.558594 1027 695.105469 1027.917969 C 699.648438 1028.839844 704.214844 1029.648438 708.800781 1030.34375 C 713.386719 1031.035156 717.984375 1031.617188 722.597656 1032.085938 C 727.210938 1032.554688 731.835938 1032.910156 736.464844 1033.152344 C 741.097656 1033.390625 745.730469 1033.519531 750.371094 1033.53125 C 755.007812 1033.542969 759.640625 1033.441406 764.273438 1033.226562 C 768.90625 1033.007812 773.53125 1032.679688 778.148438 1032.234375 C 782.765625 1031.792969 787.367188 1031.234375 791.957031 1030.5625 C 796.542969 1029.894531 801.113281 1029.109375 805.664062 1028.214844 C 810.214844 1027.320312 814.738281 1026.3125 819.242188 1025.195312 C 823.742188 1024.074219 828.210938 1022.847656 832.652344 1021.507812 C 837.089844 1020.167969 841.496094 1018.722656 845.863281 1017.164062 C 850.234375 1015.609375 854.5625 1013.949219 858.847656 1012.179688 C 863.136719 1010.410156 867.375 1008.535156 871.570312 1006.558594 C 875.765625 1004.582031 879.910156 1002.5 884 1000.320312 C 888.09375 998.136719 892.128906 995.855469 896.109375 993.472656 C 900.089844 991.09375 904.007812 988.617188 907.863281 986.042969 C 911.722656 983.46875 915.515625 980.800781 919.242188 978.039062 C 922.96875 975.28125 926.621094 972.429688 930.207031 969.488281 C 933.792969 966.546875 937.304688 963.519531 940.742188 960.40625 C 944.179688 957.292969 947.539062 954.097656 950.816406 950.816406 C 954.097656 947.539062 957.292969 944.179688 960.40625 940.742188 C 963.519531 937.304688 966.546875 933.792969 969.488281 930.207031 C 972.429688 926.621094 975.28125 922.96875 978.039062 919.242188 C 980.800781 915.515625 983.46875 911.722656 986.042969 907.863281 C 988.617188 904.007812 991.09375 900.089844 993.472656 896.109375 C 995.855469 892.128906 998.136719 888.09375 1000.320312 884 C 1002.5 879.910156 1004.582031 875.765625 1006.558594 871.570312 C 1008.535156 867.375 1010.410156 863.136719 1012.179688 858.847656 C 1013.949219 854.5625 1015.609375 850.234375 1017.164062 845.863281 C 1018.722656 841.496094 1020.167969 837.089844 1021.507812 832.652344 C 1022.847656 828.210938 1024.074219 823.742188 1025.195312 819.242188 C 1026.3125 814.738281 1027.320312 810.214844 1028.214844 805.664062 C 1029.109375 801.113281 1029.894531 796.542969 1030.5625 791.957031 C 1031.234375 787.367188 1031.792969 782.765625 1032.234375 778.148438 C 1032.679688 773.53125 1033.007812 768.90625 1033.226562 764.273438 C 1033.441406 759.640625 1033.542969 755.007812 1033.53125 750.371094 C 1033.519531 745.730469 1033.390625 741.097656 1033.152344 736.464844 C 1032.910156 731.835938 1032.554688 727.210938 1032.085938 722.597656 C 1031.617188 717.984375 1031.035156 713.386719 1030.34375 708.800781 C 1029.648438 704.214844 1028.839844 699.648438 1027.917969 695.105469 C 1027 690.558594 1025.96875 686.039062 1024.824219 681.542969 C 1023.683594 677.050781 1022.429688 672.585938 1021.066406 668.152344 C 1019.707031 663.71875 1018.234375 659.324219 1016.65625 654.964844 C 1015.078125 650.601562 1013.390625 646.285156 1011.597656 642.007812 C 1009.808594 637.730469 1007.910156 633.5 1005.910156 629.316406 C 1003.910156 625.132812 1001.808594 621 999.605469 616.917969 C 997.402344 612.835938 995.097656 608.8125 992.695312 604.847656 C 990.292969 600.878906 987.796875 596.976562 985.199219 593.132812 C 982.605469 589.289062 979.917969 585.507812 977.136719 581.796875 C 974.355469 578.085938 971.488281 574.445312 968.527344 570.875 C 965.566406 567.304688 962.519531 563.8125 959.390625 560.390625 C 956.257812 556.96875 953.042969 553.628906 949.746094 550.367188 Z M 563.246094 563.246094 C 571.179688 555.277344 579.589844 547.851562 588.476562 540.960938 C 597.359375 534.070312 606.652344 527.78125 616.34375 522.082031 C 626.039062 516.386719 636.058594 511.332031 646.398438 506.921875 C 656.742188 502.515625 667.324219 498.78125 678.144531 495.730469 C 661.371094 509.714844 645.988281 528.722656 632.617188 552.316406 C 623.96875 567.734375 616.664062 583.769531 610.710938 600.414062 C 590.621094 593.605469 571.515625 584.683594 553.398438 573.65625 C 556.574219 570.113281 559.859375 566.644531 563.246094 563.246094 Z M 541.566406 587.742188 C 561.542969 600.167969 582.679688 610.140625 604.96875 617.667969 C 593.433594 655.324219 586.96875 697.300781 586.171875 740.945312 L 486.039062 740.945312 C 486.257812 734.042969 486.746094 727.15625 487.507812 720.292969 C 488.269531 713.425781 489.300781 706.601562 490.601562 699.816406 C 491.902344 693.03125 493.472656 686.308594 495.304688 679.648438 C 497.136719 672.988281 499.230469 666.410156 501.585938 659.917969 C 503.9375 653.421875 506.546875 647.03125 509.40625 640.742188 C 512.265625 634.453125 515.367188 628.289062 518.714844 622.246094 C 522.0625 616.203125 525.644531 610.300781 529.457031 604.542969 C 533.273438 598.78125 537.308594 593.179688 541.566406 587.742188 Z M 541.566406 912.371094 C 537.308594 906.933594 533.273438 901.332031 529.457031 895.574219 C 525.644531 889.8125 522.0625 883.910156 518.714844 877.867188 C 515.367188 871.828125 512.265625 865.660156 509.40625 859.371094 C 506.546875 853.082031 503.9375 846.691406 501.585938 840.199219 C 499.230469 833.703125 497.136719 827.125 495.304688 820.464844 C 493.472656 813.804688 491.902344 807.082031 490.601562 800.296875 C 489.300781 793.515625 488.269531 786.6875 487.507812 779.824219 C 486.746094 772.957031 486.257812 766.070312 486.039062 759.167969 L 586.171875 759.167969 C 586.96875 802.816406 593.433594 844.789062 604.96875 882.445312 C 582.679688 889.972656 561.542969 899.945312 541.566406 912.371094 Z M 563.246094 936.867188 C 559.855469 933.472656 556.570312 930.003906 553.398438 926.457031 C 571.515625 915.429688 590.621094 906.507812 610.710938 899.699219 C 616.664062 916.34375 623.96875 932.378906 632.617188 947.796875 C 645.988281 971.394531 661.371094 990.398438 678.144531 1004.382812 C 667.324219 1001.332031 656.742188 997.601562 646.398438 993.191406 C 636.058594 988.78125 626.039062 983.726562 616.34375 978.03125 C 606.652344 972.335938 597.359375 966.042969 588.476562 959.152344 C 579.589844 952.265625 571.179688 944.835938 563.246094 936.867188 Z M 740.945312 1013.707031 C 706.375 1009.78125 673.820312 983.542969 648.46875 938.8125 C 640.4375 924.503906 633.644531 909.628906 628.085938 894.1875 C 662.660156 884.164062 701.078125 878.449219 740.945312 877.6875 Z M 740.945312 859.464844 C 699.144531 860.242188 658.742188 866.289062 622.3125 876.933594 C 611.347656 841.066406 605.175781 800.96875 604.390625 759.167969 L 740.945312 759.167969 Z M 740.945312 740.945312 L 604.390625 740.945312 C 605.175781 699.144531 611.347656 659.050781 622.3125 623.179688 C 658.742188 633.824219 699.144531 639.871094 740.945312 640.648438 Z M 740.945312 622.425781 C 701.078125 621.664062 662.660156 615.949219 628.085938 605.925781 C 633.644531 590.488281 640.4375 575.609375 648.46875 561.300781 C 673.820312 516.570312 706.375 490.332031 740.945312 486.40625 Z M 958.546875 587.742188 C 962.804688 593.179688 966.839844 598.78125 970.65625 604.542969 C 974.46875 610.300781 978.050781 616.203125 981.398438 622.246094 C 984.746094 628.289062 987.847656 634.453125 990.707031 640.742188 C 993.566406 647.03125 996.175781 653.421875 998.527344 659.917969 C 1000.882812 666.410156 1002.976562 672.988281 1004.808594 679.648438 C 1006.640625 686.308594 1008.210938 693.03125 1009.511719 699.816406 C 1010.8125 706.601562 1011.84375 713.425781 1012.605469 720.292969 C 1013.367188 727.15625 1013.855469 734.042969 1014.074219 740.945312 L 913.945312 740.945312 C 913.148438 697.300781 906.679688 655.324219 895.144531 617.667969 C 917.433594 610.140625 938.570312 600.167969 958.546875 587.742188 Z M 936.867188 563.246094 C 940.261719 566.640625 943.542969 570.109375 946.714844 573.65625 C 928.597656 584.683594 909.492188 593.605469 889.402344 600.414062 C 883.449219 583.769531 876.144531 567.734375 867.496094 552.316406 C 854.125 528.722656 838.742188 509.714844 821.96875 495.730469 C 832.789062 498.78125 843.371094 502.515625 853.714844 506.921875 C 864.058594 511.332031 874.074219 516.386719 883.769531 522.082031 C 893.464844 527.78125 902.753906 534.070312 911.640625 540.960938 C 920.523438 547.851562 928.933594 555.277344 936.867188 563.246094 Z M 759.167969 486.40625 C 793.738281 490.332031 826.296875 516.570312 851.644531 561.300781 C 859.675781 575.609375 866.46875 590.488281 872.027344 605.925781 C 837.453125 615.949219 799.035156 621.664062 759.167969 622.425781 Z M 759.167969 640.648438 C 800.96875 639.871094 841.371094 633.824219 877.800781 623.179688 C 888.765625 659.050781 894.9375 699.144531 895.722656 740.945312 L 759.167969 740.945312 Z M 759.167969 759.167969 L 895.722656 759.167969 C 894.9375 800.96875 888.765625 841.066406 877.800781 876.933594 C 841.371094 866.289062 800.96875 860.242188 759.167969 859.464844 Z M 759.167969 1013.707031 L 759.167969 877.6875 C 799.035156 878.449219 837.453125 884.164062 872.027344 894.1875 C 866.46875 909.628906 859.675781 924.503906 851.644531 938.8125 C 826.296875 983.542969 793.738281 1009.78125 759.167969 1013.707031 Z M 936.867188 936.867188 C 928.933594 944.835938 920.523438 952.265625 911.640625 959.152344 C 902.753906 966.042969 893.464844 972.335938 883.769531 978.03125 C 874.074219 983.726562 864.058594 988.78125 853.714844 993.191406 C 843.371094 997.601562 832.789062 1001.332031 821.96875 1004.382812 C 838.742188 990.398438 854.125 971.394531 867.496094 947.796875 C 876.144531 932.378906 883.449219 916.34375 889.402344 899.699219 C 909.492188 906.507812 928.597656 915.429688 946.714844 926.457031 C 943.539062 930 940.257812 933.46875 936.867188 936.867188 Z M 958.546875 912.371094 C 938.570312 899.945312 917.433594 889.972656 895.144531 882.445312 C 906.679688 844.789062 913.148438 802.8125 913.945312 759.167969 L 1014.074219 759.167969 C 1013.855469 766.070312 1013.367188 772.957031 1012.605469 779.824219 C 1011.84375 786.6875 1010.8125 793.515625 1009.511719 800.296875 C 1008.210938 807.082031 1006.640625 813.804688 1004.808594 820.464844 C 1002.976562 827.125 1000.882812 833.703125 998.527344 840.199219 C 996.175781 846.691406 993.566406 853.082031 990.707031 859.371094 C 987.847656 865.660156 984.746094 871.828125 981.398438 877.867188 C 978.050781 883.910156 974.46875 889.8125 970.65625 895.574219 C 966.839844 901.332031 962.804688 906.933594 958.546875 912.371094 Z M 958.546875 912.371094 " fill-opacity="1" fill-rule="nonzero"/></svg>